<?xml version="1.0" standalone="no"?><!DOCTYPE svg PUBLIC "-//W3C//DTD SVG 1.1//EN" "http://www.w3.org/Graphics/SVG/1.1/DTD/svg11.dtd"><svg class="icon" width="200px" height="200.00px" viewBox="0 0 1024 1024" version="1.1" xmlns="http://www.w3.org/2000/svg"><path d="M768 938.666667H256c-94.293333 0-170.666667-76.373333-170.666667-170.666667V256c0-94.293333 76.373333-170.666667 170.666667-170.666667h512c94.293333 0 170.666667 76.373333 170.666667 170.666667v512c0 94.293333-76.373333 170.666667-170.666667 170.666667z" fill="#00B30D" /><path d="M851.626667 590.08c0-96-96.426667-174.506667-204.373334-174.506667-114.346667 0-204.373333 78.506667-204.373333 174.506667 0 96.426667 90.026667 174.506667 204.373333 174.506667 23.893333 0 48.213333-5.973333 72.106667-11.946667l66.133333 36.266667-17.92-60.16c48.213333-36.266667 84.053333-84.48 84.053334-138.666667z m-267.093334-27.733333c-14.506667 0-26.026667-11.52-26.026666-26.026667s11.52-26.026667 26.026666-26.026667 26.026667 11.52 26.026667 26.026667-11.52 26.026667-26.026667 26.026667z m130.986667 0c-14.506667 0-26.026667-11.52-26.026667-26.026667s11.52-26.026667 26.026667-26.026667 26.026667 11.52 26.026667 26.026667-11.52 26.026667-26.026667 26.026667z" fill="#FFFFFF" /><path d="M412.586667 235.093333c-132.266667 0-240.64 90.026667-240.64 204.373334 0 66.133333 35.84 120.32 96.426666 162.56l-23.893333 72.533333 84.053333-42.24c30.293333 5.973333 54.186667 11.946667 84.48 11.946667 7.68 0 14.933333-0.426667 22.613334-0.853334-4.693333-16.213333-7.253333-32.853333-7.253334-50.346666 0-104.96 90.453333-190.293333 204.373334-190.293334 7.68 0 15.36 0.426667 23.04 1.28-21.333333-96.853333-124.586667-168.96-243.2-168.96zM348.16 392.533333c-5.12 2.986667-10.666667 4.693333-16.64 4.693334a33.322667 33.322667 0 0 1 0-66.56c18.346667 0 33.28 14.933333 33.28 33.28 0 11.52-6.4 22.613333-16.64 28.586666z m153.6 4.266667a33.322667 33.322667 0 0 1 0-66.56c18.346667 0 33.28 14.933333 33.28 33.28 0.426667 18.346667-14.506667 33.28-33.28 33.28z" fill="#FFFFFF" /></svg>